<svg xmlns="http://www.w3.org/2000/svg" fill="none" viewBox="0 0 256 256"><path fill="url(#a)" d="M0 0h256v256H0z"/><path fill="#89937A" d="M101.037 182.649c0 20.4-10.922 32.351-32.146 32.351-3.297 0-7.418-.206-9.891-1.03v-20.4c1.442.206 3.71.618 5.564.618 7.418 0 10.92-3.503 10.92-11.745V86.83h25.552l.001 95.819ZM133.112 151.533c2.061 6.595 7.831 10.097 15.455 10.097 7.83 0 12.982-3.09 12.982-9.066 0-4.121-2.885-6.182-9.272-7.83l-18.546-4.121c-14.011-3.297-23.903-10.509-23.903-25.964 0-17.927 16.073-29.879 36.679-29.879 23.285 0 36.061 11.127 39.152 28.437h-24.316c-1.648-5.151-5.976-9.067-14.424-9.067-6.182 0-12.158 2.885-12.158 8.655 0 3.709 2.473 5.77 8.243 7.212l18.957 4.327c16.073 3.915 24.522 12.776 24.522 26.788 0 18.751-16.279 29.879-37.709 29.879-22.461 0-38.327-10.716-41.006-29.467l25.344-.001ZM185.658 45H75.485v25.551h110.173V45Z"/><defs><radialGradient id="a" cx="0" cy="0" r="1" gradientTransform="rotate(90 0 128) scale(128)" gradientUnits="userSpaceOnUse"><stop stop-color="#E3E5DF"/><stop offset="1" stop-color="#FEFCF8"/></radialGradient></defs></svg>
