<svg xmlns="http://www.w3.org/2000/svg" width="120" height="41">
  <path fill="hsla(224, 58%, 50%, 0.35)" d="M25.32 16.285l-.148-15a2253.8 2253.8 0 0028.712-.47C57.632.73 61.294.64 65.711.528 66.429.51 73.83.318 75.774.27c17.409-.435 20.923-.427 23.788.64a8.116 8.116 0 012.248 1.253c1.396 1.1 2.48 2.672 2.84 4.734.379 2.16-.176 4.133-1.25 5.696a8.012 8.012 0 01-1.954 1.989c-1.167.847-2.379 1.353-4.184 1.94-2.337.759-6.007 1.703-11.655 3.02-4.765 1.112-10.74 2.447-20.715 4.639l-3.84.843c8.067.006 17.61-.053 30.433-.163 14.01-.12 20.242-.161 28.04-.161v15c-7.741 0-13.944.04-27.91.16-28.064.241-40.554.241-56.203-.163-10.113-.26-17.387-.626-22.185-1.104-2.48-.247-4.386-.531-5.856-.89-1.022-.251-1.917-.552-2.779-.989-1.997-1.011-3.62-2.526-4.318-5.227-.872-3.372.438-6.122 2.518-7.947.846-.743 1.715-1.243 2.71-1.68 1.125-.493 2.461-.91 4.148-1.338 2.398-.61 5.286-1.194 10.036-2.075l1.802-.332c5.375-.99 7.286-1.355 9.44-1.83l.297-.066c-1.959.024-3.925.046-5.905.066z" />
</svg>
