<svg width="55" height="30" viewBox="0 0 55 30" fill="none" xmlns="http://www.w3.org/2000/svg">
<rect x="5" y="15" width="5" height="15" fill="#4FD000"/>
<path fill-rule="evenodd" clip-rule="evenodd" d="M5 0H0V15H5H10H15V0H10H5ZM10 10V5H5V10H10Z" fill="#FB328A"/>
<rect y="15" width="5" height="5" fill="#006632"/>
<rect x="10" y="20" width="5" height="5" fill="#20983A"/>
<rect x="5" y="5" width="5" height="5" fill="#FFF000"/>
<rect x="25" y="15" width="5" height="15" fill="#4FD000"/>
<path fill-rule="evenodd" clip-rule="evenodd" d="M25 0H20V15H25H30H35V0H30H25ZM30 10V5H25V10H30Z" fill="#2EB2E8"/>
<rect x="20" y="15" width="5" height="5" fill="#006632"/>
<rect x="30" y="20" width="5" height="5" fill="#20983A"/>
<rect x="25" y="5" width="5" height="5" fill="#FFF000"/>
<rect x="45" y="15" width="5" height="15" fill="#4FD000"/>
<path fill-rule="evenodd" clip-rule="evenodd" d="M45 0H40V15H45H50H55V0H50H45ZM50 10V5H45V10H50Z" fill="#FF8700"/>
<rect x="40" y="15" width="5" height="5" fill="#006632"/>
<rect x="50" y="20" width="5" height="5" fill="#20983A"/>
<rect x="45" y="5" width="5" height="5" fill="#FFF000"/>
</svg>
