<svg width="50" height="40" viewBox="0 0 50 40" fill="none" xmlns="http://www.w3.org/2000/svg">
<path fill-rule="evenodd" clip-rule="evenodd" d="M0 0H30V15H40V20H45V15H50V25H45V40H40V35H25V40H20V35H10V40H5V35V30H25V15H0V0Z" fill="#FF9BBB"/>
<rect y="15" width="25" height="15" fill="#E4597C"/>
<rect x="15" y="20" width="5" height="5" fill="#251916"/>
<rect x="5" y="20" width="5" height="5" fill="#251916"/>
<rect x="15" y="10" width="5" height="5" fill="#251916"/>
<rect x="5" y="10" width="5" height="5" fill="#251916"/>
<path fill-rule="evenodd" clip-rule="evenodd" d="M10 0H0V5V10H5V5H10V0Z" fill="#E4597C"/>
<path fill-rule="evenodd" clip-rule="evenodd" d="M20 0H30V5V10H25V5H20V0Z" fill="#E4597C"/>
</svg>
