<svg width="30" height="45" viewBox="0 0 30 45" fill="none" xmlns="http://www.w3.org/2000/svg">
<rect width="5" height="5" fill="#FFFAF0"/>
<rect x="25" y="10" width="5" height="5" fill="black"/>
<rect x="20" y="20" width="5" height="5" fill="#FFA81F"/>
<rect x="15" y="20" width="5" height="5" fill="#F22B4D"/>
<rect x="10" y="20" width="5" height="5" fill="#FFA81F"/>
<rect x="5" y="20" width="5" height="5" fill="#F22B4D"/>
<rect y="25" width="5" height="5" fill="#F22B4D"/>
<rect x="5" y="10" width="20" height="10" fill="#FFFAF0"/>
<path fill-rule="evenodd" clip-rule="evenodd" d="M20 0H5V10H20H25V5H20V0Z" fill="#F22B4D"/>
<path fill-rule="evenodd" clip-rule="evenodd" d="M5 25H30V40H25V45H10V40H5H0V30H5V25Z" fill="#FFFAF0"/>
<rect x="15" y="10" width="5" height="5" fill="black"/>
<rect x="15" y="35" width="5" height="5" fill="black"/>
<rect x="15" y="25" width="5" height="5" fill="black"/>
</svg>
