<svg width="40" height="55" viewBox="0 0 40 55" fill="none" xmlns="http://www.w3.org/2000/svg">
<path fill-rule="evenodd" clip-rule="evenodd" d="M35 0H15V5H10V10H35V5V0Z" fill="black"/>
<path fill-rule="evenodd" clip-rule="evenodd" d="M35 10H10V20V25H30V20H35V10Z" fill="#E49D23"/>
<rect x="5" y="10" width="5" height="5" fill="#916034"/>
<rect y="20" width="5" height="5" fill="#E49D23"/>
<rect x="35" y="30" width="5" height="5" fill="#E49D23"/>
<rect x="15" y="10" width="5" height="5" fill="#916034"/>
<rect x="15" y="20" width="5" height="5" fill="#EA5514"/>
<path fill-rule="evenodd" clip-rule="evenodd" d="M40 25H0V30H10V35H30V30H40V25Z" fill="#828200"/>
<rect x="10" y="35" width="20" height="5" fill="black"/>
<rect y="45" width="40" height="5" fill="#E7271E"/>
<rect x="30" y="50" width="5" height="5" fill="#C9CACA"/>
<rect x="5" y="50" width="5" height="5" fill="#C9CACA"/>
</svg>
