<svg width="55" height="45" viewBox="0 0 55 45" fill="none" xmlns="http://www.w3.org/2000/svg">
<rect x="10" y="15" width="35" height="25" fill="#DC4C4E"/>
<rect x="10" y="35" width="10" height="5" transform="rotate(90 10 35)" fill="#BF2E30"/>
<path fill-rule="evenodd" clip-rule="evenodd" d="M0 10V0H5V5H10V0H15V10H10V25H5V10H0ZM45 10H40V0H45V5H50V0H55V10H50V25H45V10Z" fill="#BF2E30"/>
<rect x="50" y="35" width="10" height="5" transform="rotate(90 50 35)" fill="#BF2E30"/>
<rect x="15" y="20" width="10" height="10" fill="white"/>
<rect x="30" y="20" width="10" height="10" fill="white"/>
<rect x="20" y="25" width="5" height="5" fill="black"/>
<rect x="30" y="25" width="5" height="5" fill="black"/>
</svg>
