<svg width="40" height="40" viewBox="0 0 40 40" fill="none" xmlns="http://www.w3.org/2000/svg">
<rect x="5" width="5" height="5" fill="#0094FF"/>
<rect x="10" y="5" width="5" height="5" fill="#0094FF"/>
<path fill-rule="evenodd" clip-rule="evenodd" d="M30 10H35V15H40V20H35V25H30V30H25H5V25H0V20H5V15H25V20H30V10Z" fill="#85C0E4"/>
<rect x="5" y="25" width="5" height="5" fill="#E6F2F9"/>
<rect x="10" y="30" width="5" height="5" fill="#E6F2F9"/>
<rect x="25" y="30" width="5" height="5" fill="#E6F2F9"/>
<rect x="30" y="25" width="5" height="5" fill="#E6F2F9"/>
<path fill-rule="evenodd" clip-rule="evenodd" d="M25 20H15V15H20V10H25V15V20Z" fill="#5DA1CB"/>
<path fill-rule="evenodd" clip-rule="evenodd" d="M25 20H15V15H20V10H25V15V20Z" fill="#5DA1CB"/>
<path fill-rule="evenodd" clip-rule="evenodd" d="M25 30H15V35H20V40H25V35V30Z" fill="#5DA1CB"/>
<path fill-rule="evenodd" clip-rule="evenodd" d="M25 30H15V35H20V40H25V35V30Z" fill="#5DA1CB"/>
<rect x="15" width="5" height="5" fill="#0094FF"/>
<rect x="10" y="20" width="5" height="5" fill="black"/>
</svg>
