<svg width="45" height="35" viewBox="0 0 45 35" fill="none" xmlns="http://www.w3.org/2000/svg">
<path fill-rule="evenodd" clip-rule="evenodd" d="M20 5V0H10V5V10H5V20H10V35H15V20H30V35H35V20H40V10H35V5V0H25V5H20Z" fill="#4FD000"/>
<path fill-rule="evenodd" clip-rule="evenodd" d="M10 25V30V35H0V30H5V25H10ZM15 35H30V30H15V35ZM35 30V25H40V30H45V35H35V30Z" fill="#20983A"/>
<rect x="10" y="5" width="5" height="5" fill="black"/>
<rect x="25" y="5" width="5" height="5" fill="black"/>
<rect x="15" y="15" width="10" height="5" fill="#DD5519"/>
<rect x="15" y="20" width="15" height="10" fill="white"/>
</svg>
