<svg width="45" height="50" viewBox="0 0 45 50" fill="none" xmlns="http://www.w3.org/2000/svg">
<rect x="10" y="45" width="5" height="5" fill="#F58733"/>
<rect x="10" y="5" width="5" height="5" fill="white"/>
<rect x="25" y="45" width="5" height="5" fill="#F58733"/>
<path fill-rule="evenodd" clip-rule="evenodd" d="M5 0H15V5H20V15V20H40V25V30H35V35V40H30V45H25H15V40H10V35H5V30V25H10V20V15V10H5V0ZM40 20V15H45V20H40Z" fill="#FEEECD"/>
<rect x="10" y="5" width="5" height="5" fill="black"/>
<rect x="20" y="25" width="5" height="5" fill="#F2D28C"/>
<rect x="25" y="30" width="5" height="5" fill="#F2D28C"/>
<rect y="5" width="5" height="5" fill="#F58733"/>
</svg>
