<svg width="45" height="45" viewBox="0 0 45 45" fill="none" xmlns="http://www.w3.org/2000/svg">
<path fill-rule="evenodd" clip-rule="evenodd" d="M35 0H20V5H15V10H40V5H35V0Z" fill="#849863"/>
<rect x="40" y="20" width="5" height="5" fill="#E49D23"/>
<rect x="10" y="10" width="5" height="5" fill="#916034"/>
<path fill-rule="evenodd" clip-rule="evenodd" d="M40 10H15V20V25H35V20H40V10Z" fill="#E49D23"/>
<rect y="25" width="5" height="5" fill="#E49D23"/>
<rect x="20" y="20" width="5" height="5" fill="#EA5514"/>
<rect x="20" y="10" width="5" height="5" fill="#916034"/>
<path fill-rule="evenodd" clip-rule="evenodd" d="M45 25H5V30H15V35H35V30H45V25Z" fill="#849863"/>
<rect x="15" y="35" width="20" height="5" fill="#67794b"/>
<rect x="10" y="40" width="10" height="5" fill="#C5B999"/>
<rect x="30" y="40" width="10" height="5" fill="#C5B999"/>
</svg>
