<svg width="50" height="50" viewBox="0 0 50 50" fill="none" xmlns="http://www.w3.org/2000/svg">
<rect x="10" width="5" height="10" fill="#DCAF7B"/>
<path fill-rule="evenodd" clip-rule="evenodd" d="M5 10H35V15H20V20H25V25H5V20H10V15H5V10Z" fill="#B4641E"/>
<rect x="15" y="25" width="15" height="10" fill="#FFF6E3"/>
<path fill-rule="evenodd" clip-rule="evenodd" d="M50 30H30V35H10V40H20V45H25V40H45V45H50V40V35V30Z" fill="#B4641E"/>
<rect x="20" width="5" height="10" fill="#DCAF7B"/>
<rect y="20" width="5" height="5" fill="#3D3D3D"/>
<rect x="10" y="40" width="5" height="5" fill="#3D3D3D"/>
<rect x="20" y="45" width="5" height="5" fill="#3D3D3D"/>
<rect x="45" y="45" width="5" height="5" fill="#3D3D3D"/>
<rect x="20" y="15" width="5" height="5" fill="#3D3D3D"/>
</svg>
